<mxfile host="app.diagrams.net" modified="2023-05-16T00:02:27.308Z" agent="Mozilla/5.0 (Windows NT 10.0; Win64; x64) AppleWebKit/537.36 (KHTML, like Gecko) Chrome/113.0.0.0 Safari/537.36" version="21.3.2" etag="fiwreLqhpOoR2MuRc51m" type="github">
  <diagram name="페이지-1" id="-RQxAZ50jaHfXgSVj_xd">
    <mxGraphModel>
      <root>
        <mxCell id="0" />
        <mxCell id="1" parent="0" />
        <mxCell id="2" value="AWS" style="whiteSpace=wrap;strokeWidth=2;verticalAlign=top;" vertex="1" parent="1">
          <mxGeometry width="1484" height="320" as="geometry" />
        </mxCell>
        <mxCell id="3" value="Amazon Web Services" style="whiteSpace=wrap;strokeWidth=2;" vertex="1" parent="2">
          <mxGeometry x="43" y="151" width="170" height="33" as="geometry" />
        </mxCell>
        <mxCell id="4" value="Region" style="whiteSpace=wrap;strokeWidth=2;" vertex="1" parent="2">
          <mxGeometry x="263" y="151" width="62" height="33" as="geometry" />
        </mxCell>
        <mxCell id="5" value="Account" style="whiteSpace=wrap;strokeWidth=2;" vertex="1" parent="2">
          <mxGeometry x="376" y="151" width="74" height="33" as="geometry" />
        </mxCell>
        <mxCell id="6" value="Compute" style="whiteSpace=wrap;strokeWidth=2;verticalAlign=top;" vertex="1" parent="2">
          <mxGeometry x="499" y="33" width="194" height="270" as="geometry" />
        </mxCell>
        <mxCell id="7" value="EC2 Instances" style="whiteSpace=wrap;strokeWidth=2;" vertex="1" parent="6">
          <mxGeometry x="49" y="43" width="113" height="33" as="geometry" />
        </mxCell>
        <mxCell id="8" value="ECS Containers" style="whiteSpace=wrap;strokeWidth=2;" vertex="1" parent="6">
          <mxGeometry x="44" y="126" width="122" height="33" as="geometry" />
        </mxCell>
        <mxCell id="9" value="Lambda Functions" style="whiteSpace=wrap;strokeWidth=2;" vertex="1" parent="6">
          <mxGeometry x="33" y="210" width="144" height="33" as="geometry" />
        </mxCell>
        <mxCell id="10" value="Database" style="whiteSpace=wrap;strokeWidth=2;verticalAlign=top;" vertex="1" parent="2">
          <mxGeometry x="743" y="75" width="273" height="187" as="geometry" />
        </mxCell>
        <mxCell id="11" value="RDS Database" style="whiteSpace=wrap;strokeWidth=2;" vertex="1" parent="10">
          <mxGeometry x="88" y="43" width="112" height="33" as="geometry" />
        </mxCell>
        <mxCell id="12" value="Open Distro for Elasticsearch" style="whiteSpace=wrap;strokeWidth=2;" vertex="1" parent="10">
          <mxGeometry x="33" y="126" width="223" height="33" as="geometry" />
        </mxCell>
        <mxCell id="13" value="Storage" style="whiteSpace=wrap;strokeWidth=2;verticalAlign=top;" vertex="1" parent="2">
          <mxGeometry x="1066" y="75" width="141" height="187" as="geometry" />
        </mxCell>
        <mxCell id="14" value="S3 Buckets" style="whiteSpace=wrap;strokeWidth=2;" vertex="1" parent="13">
          <mxGeometry x="33" y="43" width="91" height="33" as="geometry" />
        </mxCell>
        <mxCell id="15" value="Glacier" style="whiteSpace=wrap;strokeWidth=2;" vertex="1" parent="13">
          <mxGeometry x="45" y="126" width="67" height="33" as="geometry" />
        </mxCell>
        <mxCell id="16" value="Networking" style="whiteSpace=wrap;strokeWidth=2;verticalAlign=top;" vertex="1" parent="2">
          <mxGeometry x="1258" y="33" width="199" height="270" as="geometry" />
        </mxCell>
        <mxCell id="17" value="ELB Load Balancer" style="whiteSpace=wrap;strokeWidth=2;" vertex="1" parent="16">
          <mxGeometry x="34" y="43" width="148" height="33" as="geometry" />
        </mxCell>
        <mxCell id="18" value="ALB Load Balancer" style="whiteSpace=wrap;strokeWidth=2;" vertex="1" parent="16">
          <mxGeometry x="33" y="126" width="149" height="33" as="geometry" />
        </mxCell>
        <mxCell id="19" value="VPC Network" style="whiteSpace=wrap;strokeWidth=2;" vertex="1" parent="16">
          <mxGeometry x="53" y="210" width="109" height="33" as="geometry" />
        </mxCell>
      </root>
    </mxGraphModel>
  </diagram>
</mxfile>
